<svg width="237" height="64" viewBox="0 0 237 64" fill="none" xmlns="http://www.w3.org/2000/svg">
<rect width="64" height="64" fill="#C4C4C4" fill-opacity="0.3"/>
<mask id="path-2-inside-1" fill="white">
<path fill-rule="evenodd" clip-rule="evenodd" d="M26.7981 48.3254L39.1176 53.2096L50.4686 23.9689L46.0245 16.9578L38.0198 19.1175L26.7981 48.3254ZM44.249 21.7698C43.5677 21.5812 42.8625 21.9806 42.6739 22.6619C42.4853 23.3432 42.8847 24.0484 43.566 24.237C44.2473 24.4256 44.9525 24.0262 45.1411 23.3449C45.3297 22.6636 44.9303 21.9584 44.249 21.7698Z"/>
</mask>
<path d="M39.1176 53.2096L38.8596 53.8604L39.515 54.1202L39.7701 53.463L39.1176 53.2096ZM26.7981 48.3254L26.1447 48.0743L25.8963 48.7208L26.5401 48.9761L26.7981 48.3254ZM50.4686 23.9689L51.1211 24.2222L51.249 23.8927L51.0598 23.5941L50.4686 23.9689ZM46.0245 16.9578L46.6157 16.583L46.3398 16.1477L45.8421 16.2819L46.0245 16.9578ZM38.0198 19.1175L37.8374 18.4416L37.4939 18.5343L37.3663 18.8664L38.0198 19.1175ZM39.3755 52.5589L27.0561 47.6747L26.5401 48.9761L38.8596 53.8604L39.3755 52.5589ZM49.816 23.7156L38.465 52.9563L39.7701 53.463L51.1211 24.2222L49.816 23.7156ZM45.4333 17.3325L49.8773 24.3436L51.0598 23.5941L46.6157 16.583L45.4333 17.3325ZM38.2021 19.7933L46.2068 17.6336L45.8421 16.2819L37.8374 18.4416L38.2021 19.7933ZM27.4515 48.5764L38.6732 19.3685L37.3663 18.8664L26.1447 48.0743L27.4515 48.5764ZM43.3485 22.8487C43.434 22.54 43.7535 22.359 44.0622 22.4445L44.4358 21.0952C43.3819 20.8035 42.291 21.4213 41.9993 22.4752L43.3485 22.8487ZM43.7528 23.5624C43.444 23.4769 43.2631 23.1574 43.3485 22.8487L41.9993 22.4752C41.7075 23.529 42.3253 24.6199 43.3792 24.9117L43.7528 23.5624ZM44.4665 23.1582C44.381 23.4669 44.0615 23.6479 43.7528 23.5624L43.3792 24.9117C44.4331 25.2034 45.524 24.5856 45.8157 23.5317L44.4665 23.1582ZM44.0622 22.4445C44.371 22.5299 44.5519 22.8495 44.4665 23.1582L45.8157 23.5317C46.1075 22.4778 45.4897 21.387 44.4358 21.0952L44.0622 22.4445Z" fill="#C9C9C9" mask="url(#path-2-inside-1)"/>
<path fill-rule="evenodd" clip-rule="evenodd" d="M12.6427 30.6171L19.5899 41.9025L46.1826 25.2684L46.8178 16.9918L39.1122 13.9318L12.6427 30.6171ZM42.5156 19.7846C42.0827 19.2258 41.2787 19.1237 40.7199 19.5567C40.161 19.9897 40.059 20.7937 40.492 21.3525C40.925 21.9113 41.729 22.0134 42.2878 21.5804C42.8466 21.1474 42.9486 20.3434 42.5156 19.7846Z" fill="#E3D6BB"/>
<path d="M94.504 20.194C95.274 20.194 95.945 20.293 96.517 20.491C97.089 20.689 97.595 20.953 98.035 21.283C98.343 21.525 98.607 21.866 98.827 22.306C99.047 22.724 99.157 23.208 99.157 23.758C99.157 24.352 98.937 24.88 98.497 25.342C98.079 25.804 97.518 26.035 96.814 26.035C96.088 26.035 95.483 25.826 94.999 25.408C94.537 24.99 94.306 24.418 94.306 23.692C94.306 23.12 94.471 22.614 94.801 22.174C95.131 21.734 95.615 21.426 96.253 21.25C96.187 21.118 96.055 21.008 95.857 20.92C95.659 20.832 95.395 20.788 95.065 20.788C94.625 20.788 94.262 20.865 93.976 21.019C93.69 21.173 93.459 21.382 93.283 21.646C93.041 21.976 92.876 22.46 92.788 23.098C92.7 23.714 92.656 24.671 92.656 25.969V28.972H96.187V29.632H92.656V42.601C92.656 43.679 92.931 44.405 93.481 44.779C94.031 45.131 94.79 45.307 95.758 45.307V46C95.186 45.978 94.383 45.956 93.349 45.934C92.315 45.89 91.226 45.868 90.082 45.868C89.246 45.868 88.421 45.89 87.607 45.934C86.815 45.956 86.21 45.978 85.792 46V45.307C86.562 45.307 87.101 45.142 87.409 44.812C87.739 44.482 87.904 43.855 87.904 42.931V29.632H85.66V28.972H87.904C87.904 27.014 88.058 25.529 88.366 24.517C88.674 23.483 89.213 22.592 89.983 21.844C90.467 21.382 91.105 20.997 91.897 20.689C92.711 20.359 93.58 20.194 94.504 20.194ZM101.75 46.231C100.276 46.231 99.2086 45.846 98.5486 45.076C97.8886 44.306 97.5586 43.371 97.5586 42.271C97.5586 41.325 97.7676 40.555 98.1856 39.961C98.6256 39.367 99.1866 38.883 99.8686 38.509C100.551 38.113 101.266 37.794 102.014 37.552C102.784 37.288 103.51 37.035 104.192 36.793C104.896 36.529 105.457 36.232 105.875 35.902C106.315 35.572 106.535 35.154 106.535 34.648V32.074C106.535 31.502 106.436 30.996 106.238 30.556C106.062 30.094 105.776 29.742 105.38 29.5C105.006 29.258 104.511 29.137 103.895 29.137C103.455 29.137 103.015 29.203 102.575 29.335C102.135 29.445 101.772 29.643 101.486 29.929C102.102 30.149 102.575 30.49 102.905 30.952C103.257 31.392 103.433 31.898 103.433 32.47C103.433 33.218 103.169 33.812 102.641 34.252C102.135 34.692 101.53 34.912 100.826 34.912C100.034 34.912 99.4286 34.67 99.0106 34.186C98.6146 33.68 98.4166 33.075 98.4166 32.371C98.4166 31.733 98.5706 31.205 98.8786 30.787C99.2086 30.369 99.6596 29.973 100.232 29.599C100.848 29.247 101.585 28.972 102.443 28.774C103.323 28.576 104.269 28.477 105.281 28.477C106.293 28.477 107.206 28.587 108.02 28.807C108.834 29.005 109.516 29.379 110.066 29.929C110.572 30.435 110.902 31.062 111.056 31.81C111.21 32.536 111.287 33.46 111.287 34.582V43.558C111.287 44.086 111.342 44.46 111.452 44.68C111.562 44.9 111.749 45.01 112.013 45.01C112.233 45.01 112.442 44.955 112.64 44.845C112.838 44.735 113.025 44.603 113.201 44.449L113.531 45.01C113.069 45.406 112.53 45.714 111.914 45.934C111.32 46.132 110.649 46.231 109.901 46.231C108.581 46.231 107.701 45.967 107.261 45.439C106.843 44.889 106.623 44.262 106.601 43.558C106.051 44.46 105.369 45.131 104.555 45.571C103.763 46.011 102.828 46.231 101.75 46.231ZM104.291 44.119C104.709 44.119 105.094 44.02 105.446 43.822C105.82 43.624 106.183 43.272 106.535 42.766V36.001C106.271 36.441 105.897 36.815 105.413 37.123C104.951 37.409 104.467 37.728 103.961 38.08C103.477 38.41 103.07 38.839 102.74 39.367C102.41 39.895 102.245 40.599 102.245 41.479C102.245 42.425 102.443 43.107 102.839 43.525C103.235 43.921 103.719 44.119 104.291 44.119ZM121.008 28.477C121.932 28.477 122.735 28.598 123.417 28.84C124.121 29.06 124.627 29.28 124.935 29.5C125.683 30.006 126.145 29.676 126.321 28.51H127.014C126.97 29.126 126.937 29.885 126.915 30.787C126.893 31.667 126.882 32.844 126.882 34.318H126.189C126.079 33.504 125.87 32.701 125.562 31.909C125.254 31.117 124.803 30.468 124.209 29.962C123.637 29.456 122.889 29.203 121.965 29.203C121.327 29.203 120.788 29.39 120.348 29.764C119.908 30.116 119.688 30.633 119.688 31.315C119.688 31.975 119.886 32.558 120.282 33.064C120.678 33.548 121.184 34.021 121.8 34.483C122.438 34.923 123.098 35.396 123.78 35.902C124.88 36.716 125.804 37.541 126.552 38.377C127.322 39.191 127.707 40.258 127.707 41.578C127.707 42.568 127.421 43.437 126.849 44.185C126.277 44.911 125.518 45.472 124.572 45.868C123.648 46.264 122.614 46.462 121.47 46.462C120.81 46.462 120.216 46.396 119.688 46.264C119.182 46.132 118.742 45.967 118.368 45.769C118.082 45.637 117.807 45.516 117.543 45.406C117.301 45.274 117.07 45.164 116.85 45.076C116.63 45.01 116.432 45.087 116.256 45.307C116.102 45.527 115.981 45.835 115.893 46.231H115.2C115.244 45.527 115.277 44.669 115.299 43.657C115.321 42.645 115.332 41.303 115.332 39.631H116.025C116.157 40.819 116.399 41.875 116.751 42.799C117.103 43.701 117.576 44.416 118.17 44.944C118.786 45.45 119.556 45.703 120.48 45.703C121.052 45.703 121.58 45.527 122.064 45.175C122.548 44.801 122.79 44.196 122.79 43.36C122.79 42.392 122.471 41.589 121.833 40.951C121.217 40.313 120.425 39.62 119.457 38.872C118.753 38.3 118.082 37.739 117.444 37.189C116.828 36.617 116.322 36.001 115.926 35.341C115.53 34.659 115.332 33.889 115.332 33.031C115.332 32.041 115.596 31.205 116.124 30.523C116.652 29.841 117.345 29.335 118.203 29.005C119.083 28.653 120.018 28.477 121.008 28.477ZM136.416 20.194V31.546C136.966 30.402 137.703 29.61 138.627 29.17C139.573 28.708 140.629 28.477 141.795 28.477C142.741 28.477 143.5 28.598 144.072 28.84C144.644 29.06 145.095 29.368 145.425 29.764C145.799 30.182 146.063 30.721 146.217 31.381C146.393 32.041 146.481 32.932 146.481 34.054V42.931C146.481 43.855 146.635 44.482 146.943 44.812C147.273 45.142 147.823 45.307 148.593 45.307V46C148.175 45.978 147.537 45.956 146.679 45.934C145.843 45.89 145.029 45.868 144.237 45.868C143.379 45.868 142.543 45.89 141.729 45.934C140.937 45.956 140.343 45.978 139.947 46V45.307C140.607 45.307 141.069 45.142 141.333 44.812C141.597 44.482 141.729 43.855 141.729 42.931V32.668C141.729 32.118 141.674 31.645 141.564 31.249C141.454 30.831 141.245 30.512 140.937 30.292C140.651 30.05 140.233 29.929 139.683 29.929C138.781 29.929 138.011 30.281 137.373 30.985C136.735 31.689 136.416 32.602 136.416 33.724V42.931C136.416 43.855 136.548 44.482 136.812 44.812C137.076 45.142 137.538 45.307 138.198 45.307V46C137.802 45.978 137.219 45.956 136.449 45.934C135.679 45.89 134.898 45.868 134.106 45.868C133.248 45.868 132.379 45.89 131.499 45.934C130.641 45.956 129.992 45.978 129.552 46V45.307C130.322 45.307 130.861 45.142 131.169 44.812C131.499 44.482 131.664 43.855 131.664 42.931V24.154C131.664 23.164 131.51 22.438 131.202 21.976C130.916 21.492 130.366 21.25 129.552 21.25V20.557C130.256 20.623 130.938 20.656 131.598 20.656C132.5 20.656 133.358 20.623 134.172 20.557C134.986 20.469 135.734 20.348 136.416 20.194ZM154.084 20.425C155.008 20.425 155.734 20.656 156.262 21.118C156.812 21.558 157.087 22.174 157.087 22.966C157.087 23.758 156.812 24.385 156.262 24.847C155.734 25.287 155.008 25.507 154.084 25.507C153.16 25.507 152.423 25.287 151.873 24.847C151.345 24.385 151.081 23.758 151.081 22.966C151.081 22.174 151.345 21.558 151.873 21.118C152.423 20.656 153.16 20.425 154.084 20.425ZM156.658 28.576V42.931C156.658 43.855 156.812 44.482 157.12 44.812C157.45 45.142 158 45.307 158.77 45.307V46C158.374 45.978 157.758 45.956 156.922 45.934C156.086 45.89 155.239 45.868 154.381 45.868C153.523 45.868 152.654 45.89 151.774 45.934C150.894 45.956 150.234 45.978 149.794 46V45.307C150.564 45.307 151.103 45.142 151.411 44.812C151.741 44.482 151.906 43.855 151.906 42.931V32.536C151.906 31.546 151.752 30.82 151.444 30.358C151.158 29.874 150.608 29.632 149.794 29.632V28.939C150.498 29.005 151.18 29.038 151.84 29.038C152.764 29.038 153.622 29.005 154.414 28.939C155.228 28.851 155.976 28.73 156.658 28.576ZM168.717 28.477C170.323 28.477 171.731 28.774 172.941 29.368C174.151 29.962 175.097 30.919 175.779 32.239C176.461 33.559 176.802 35.308 176.802 37.486C176.802 39.664 176.461 41.413 175.779 42.733C175.097 44.031 174.151 44.977 172.941 45.571C171.731 46.165 170.323 46.462 168.717 46.462C167.155 46.462 165.758 46.165 164.526 45.571C163.316 44.977 162.359 44.031 161.655 42.733C160.973 41.413 160.632 39.664 160.632 37.486C160.632 35.308 160.973 33.559 161.655 32.239C162.359 30.919 163.316 29.962 164.526 29.368C165.758 28.774 167.155 28.477 168.717 28.477ZM168.717 29.137C167.837 29.137 167.1 29.797 166.506 31.117C165.912 32.415 165.615 34.538 165.615 37.486C165.615 40.434 165.912 42.557 166.506 43.855C167.1 45.153 167.837 45.802 168.717 45.802C169.619 45.802 170.356 45.153 170.928 43.855C171.522 42.557 171.819 40.434 171.819 37.486C171.819 34.538 171.522 32.415 170.928 31.117C170.356 29.797 169.619 29.137 168.717 29.137ZM191.138 28.477C192.062 28.477 192.81 28.598 193.382 28.84C193.976 29.06 194.438 29.368 194.768 29.764C195.12 30.182 195.373 30.721 195.527 31.381C195.703 32.041 195.791 32.932 195.791 34.054V42.931C195.791 43.855 195.945 44.482 196.253 44.812C196.583 45.142 197.133 45.307 197.903 45.307V46C197.485 45.978 196.858 45.956 196.022 45.934C195.186 45.89 194.361 45.868 193.547 45.868C192.711 45.868 191.886 45.89 191.072 45.934C190.28 45.956 189.675 45.978 189.257 46V45.307C189.917 45.307 190.379 45.142 190.643 44.812C190.907 44.482 191.039 43.855 191.039 42.931V32.668C191.039 32.118 190.984 31.645 190.874 31.249C190.764 30.831 190.566 30.512 190.28 30.292C189.994 30.05 189.565 29.929 188.993 29.929C188.069 29.929 187.288 30.292 186.65 31.018C186.034 31.744 185.726 32.657 185.726 33.757V42.931C185.726 43.855 185.858 44.482 186.122 44.812C186.408 45.142 186.87 45.307 187.508 45.307V46C187.112 45.978 186.529 45.956 185.759 45.934C185.011 45.89 184.23 45.868 183.416 45.868C182.58 45.868 181.722 45.89 180.842 45.934C179.962 45.956 179.302 45.978 178.862 46V45.307C179.632 45.307 180.171 45.142 180.479 44.812C180.809 44.482 180.974 43.855 180.974 42.931V32.536C180.974 31.546 180.82 30.82 180.512 30.358C180.226 29.874 179.676 29.632 178.862 29.632V28.939C179.566 29.005 180.248 29.038 180.908 29.038C181.832 29.038 182.69 29.005 183.482 28.939C184.296 28.851 185.044 28.73 185.726 28.576V31.546C186.276 30.424 187.024 29.632 187.97 29.17C188.916 28.708 189.972 28.477 191.138 28.477Z" fill="#E3D6BB"/>
<path d="M211.409 28.477C212.333 28.477 213.081 28.598 213.653 28.84C214.247 29.06 214.709 29.368 215.039 29.764C215.391 30.182 215.644 30.721 215.798 31.381C215.974 32.041 216.062 32.932 216.062 34.054V42.931C216.062 43.855 216.216 44.482 216.524 44.812C216.854 45.142 217.404 45.307 218.174 45.307V46C217.756 45.978 217.129 45.956 216.293 45.934C215.457 45.89 214.632 45.868 213.818 45.868C212.982 45.868 212.157 45.89 211.343 45.934C210.551 45.956 209.946 45.978 209.528 46V45.307C210.188 45.307 210.65 45.142 210.914 44.812C211.178 44.482 211.31 43.855 211.31 42.931V32.668C211.31 32.118 211.255 31.645 211.145 31.249C211.035 30.831 210.837 30.512 210.551 30.292C210.265 30.05 209.836 29.929 209.264 29.929C208.34 29.929 207.559 30.292 206.921 31.018C206.305 31.744 205.997 32.657 205.997 33.757V42.931C205.997 43.855 206.129 44.482 206.393 44.812C206.679 45.142 207.141 45.307 207.779 45.307V46C207.383 45.978 206.8 45.956 206.03 45.934C205.282 45.89 204.501 45.868 203.687 45.868C202.851 45.868 201.993 45.89 201.113 45.934C200.233 45.956 199.573 45.978 199.133 46V45.307C199.903 45.307 200.442 45.142 200.75 44.812C201.08 44.482 201.245 43.855 201.245 42.931V32.536C201.245 31.546 201.091 30.82 200.783 30.358C200.497 29.874 199.947 29.632 199.133 29.632V28.939C199.837 29.005 200.519 29.038 201.179 29.038C202.103 29.038 202.961 29.005 203.753 28.939C204.567 28.851 205.315 28.73 205.997 28.576V31.546C206.547 30.424 207.295 29.632 208.241 29.17C209.187 28.708 210.243 28.477 211.409 28.477ZM225.58 52.204C224.216 52.204 222.995 52.083 221.917 51.841C220.861 51.621 220.025 51.269 219.409 50.785C218.815 50.323 218.518 49.751 218.518 49.069C218.518 48.387 218.826 47.771 219.442 47.221C220.058 46.693 220.971 46.275 222.181 45.967L222.478 46.495C222.06 46.825 221.752 47.177 221.554 47.551C221.378 47.947 221.29 48.354 221.29 48.772C221.29 49.696 221.708 50.4 222.544 50.884C223.402 51.39 224.557 51.643 226.009 51.643C226.999 51.643 227.879 51.511 228.649 51.247C229.441 50.983 230.057 50.587 230.497 50.059C230.959 49.531 231.19 48.882 231.19 48.112C231.19 47.452 230.948 46.891 230.464 46.429C229.98 45.989 229.012 45.769 227.56 45.769H225.514C224.612 45.769 223.82 45.67 223.138 45.472C222.478 45.274 221.961 44.966 221.587 44.548C221.213 44.108 221.026 43.558 221.026 42.898C221.026 41.974 221.389 41.16 222.115 40.456C222.841 39.752 223.919 39.092 225.349 38.476L225.679 38.74C225.261 39.004 224.865 39.29 224.491 39.598C224.139 39.884 223.963 40.258 223.963 40.72C223.963 41.424 224.403 41.776 225.283 41.776H228.88C230.706 41.776 232.224 42.117 233.434 42.799C234.644 43.459 235.249 44.57 235.249 46.132C235.249 47.21 234.897 48.211 234.193 49.135C233.511 50.059 232.455 50.796 231.025 51.346C229.595 51.918 227.78 52.204 225.58 52.204ZM225.91 38.971C224.04 38.971 222.478 38.553 221.224 37.717C219.97 36.859 219.343 35.528 219.343 33.724C219.343 31.898 219.97 30.567 221.224 29.731C222.478 28.895 224.04 28.477 225.91 28.477C227.802 28.477 229.364 28.895 230.596 29.731C231.85 30.567 232.477 31.898 232.477 33.724C232.477 35.528 231.85 36.859 230.596 37.717C229.364 38.553 227.802 38.971 225.91 38.971ZM225.91 38.377C226.504 38.377 226.966 38.047 227.296 37.387C227.626 36.705 227.791 35.484 227.791 33.724C227.791 31.964 227.626 30.754 227.296 30.094C226.966 29.412 226.504 29.071 225.91 29.071C225.338 29.071 224.876 29.412 224.524 30.094C224.194 30.754 224.029 31.964 224.029 33.724C224.029 35.484 224.194 36.705 224.524 37.387C224.876 38.047 225.338 38.377 225.91 38.377ZM231.058 31.315L230.398 31.084C230.728 30.226 231.256 29.511 231.982 28.939C232.73 28.367 233.533 28.081 234.391 28.081C235.095 28.081 235.623 28.279 235.975 28.675C236.349 29.049 236.536 29.544 236.536 30.16C236.536 30.82 236.36 31.315 236.008 31.645C235.656 31.953 235.26 32.107 234.82 32.107C234.446 32.107 234.094 31.975 233.764 31.711C233.456 31.447 233.28 31.051 233.236 30.523C233.192 29.973 233.379 29.269 233.797 28.411L234.028 28.609C233.192 28.917 232.565 29.28 232.147 29.698C231.729 30.094 231.366 30.633 231.058 31.315Z" fill="#828282"/>
</svg>
