<svg width="64" height="64" viewBox="0 0 64 64" fill="none" xmlns="http://www.w3.org/2000/svg">
<rect width="64" height="64" fill="#C4C4C4" fill-opacity="0.3"/>
<mask id="path-2-inside-1" fill="white">
<path fill-rule="evenodd" clip-rule="evenodd" d="M26.7981 48.3254L39.1176 53.2096L50.4686 23.9689L46.0245 16.9578L38.0198 19.1175L26.7981 48.3254ZM44.249 21.7698C43.5677 21.5812 42.8625 21.9806 42.6739 22.6619C42.4853 23.3432 42.8847 24.0484 43.566 24.237C44.2473 24.4256 44.9525 24.0262 45.1411 23.3449C45.3297 22.6636 44.9303 21.9584 44.249 21.7698Z"/>
</mask>
<path d="M39.1176 53.2096L38.8596 53.8604L39.515 54.1202L39.7701 53.463L39.1176 53.2096ZM26.7981 48.3254L26.1447 48.0743L25.8963 48.7208L26.5401 48.9761L26.7981 48.3254ZM50.4686 23.9689L51.1211 24.2222L51.249 23.8927L51.0598 23.5941L50.4686 23.9689ZM46.0245 16.9578L46.6157 16.583L46.3398 16.1477L45.8421 16.2819L46.0245 16.9578ZM38.0198 19.1175L37.8374 18.4416L37.4939 18.5343L37.3663 18.8664L38.0198 19.1175ZM39.3755 52.5589L27.0561 47.6747L26.5401 48.9761L38.8596 53.8604L39.3755 52.5589ZM49.816 23.7156L38.465 52.9563L39.7701 53.463L51.1211 24.2222L49.816 23.7156ZM45.4333 17.3325L49.8773 24.3436L51.0598 23.5941L46.6157 16.583L45.4333 17.3325ZM38.2021 19.7933L46.2068 17.6336L45.8421 16.2819L37.8374 18.4416L38.2021 19.7933ZM27.4515 48.5764L38.6732 19.3685L37.3663 18.8664L26.1447 48.0743L27.4515 48.5764ZM43.3485 22.8487C43.434 22.54 43.7535 22.359 44.0622 22.4445L44.4358 21.0952C43.3819 20.8035 42.291 21.4213 41.9993 22.4752L43.3485 22.8487ZM43.7528 23.5624C43.444 23.4769 43.2631 23.1574 43.3485 22.8487L41.9993 22.4752C41.7075 23.529 42.3253 24.6199 43.3792 24.9117L43.7528 23.5624ZM44.4665 23.1582C44.381 23.4669 44.0615 23.6479 43.7528 23.5624L43.3792 24.9117C44.4331 25.2034 45.524 24.5856 45.8157 23.5317L44.4665 23.1582ZM44.0622 22.4445C44.371 22.5299 44.5519 22.8495 44.4665 23.1582L45.8157 23.5317C46.1075 22.4778 45.4897 21.387 44.4358 21.0952L44.0622 22.4445Z" fill="#C9C9C9" mask="url(#path-2-inside-1)"/>
<path fill-rule="evenodd" clip-rule="evenodd" d="M12.6429 30.6171L19.59 41.9025L46.1827 25.2684L46.8179 16.9918L39.1123 13.9318L12.6429 30.6171ZM42.5158 19.7846C42.0828 19.2258 41.2788 19.1237 40.72 19.5567C40.1612 19.9897 40.0591 20.7937 40.4921 21.3525C40.9251 21.9113 41.7291 22.0134 42.2879 21.5804C42.8467 21.1474 42.9487 20.3434 42.5158 19.7846Z" fill="#E3D6BB"/>
</svg>
